<svg xmlns="http://www.w3.org/2000/svg" viewBox="0 0 575.25 164.7"><defs><style>.cls-1{fill:#fff;}</style></defs><title>Teller-R-ForOnDark</title><g id="Layer_2" data-name="Layer 2"><g id="_Logo" data-name=" Logo"><g id="Logo"><g id="Type"><polygon class="cls-1" points="198.02 36.89 239.72 36.89 239.72 24.91 198.02 24.91 183.73 24.91 145.13 24.91 145.13 36.89 183.73 36.89 183.73 142.45 198.02 142.45 198.02 36.89"/><path class="cls-1" d="M427.23,49.39c-26,0-43.52,19.27-43.52,48s18.47,47.24,45.88,47.24a77.71,77.71,0,0,0,26-4.13V127.21a77.3,77.3,0,0,1-26,4.15c-18.45,0-30.14-11.74-30.48-30.65v-.57h69.82l.06-.64a53.16,53.16,0,0,0,.41-6C469.33,67.5,452,49.39,427.23,49.39Zm-27.87,40,.05-.61c1.31-16.54,12.17-27.24,27.64-27.24,12.51,0,26.3,7.16,27.47,27.26l0,.59Z"/><path class="cls-1" d="M265.05,49.39c-26,0-43.53,19.27-43.53,48s18.48,47.24,45.89,47.24a77.69,77.69,0,0,0,25.94-4.13V127.21a77.28,77.28,0,0,1-26,4.15c-18.46,0-30.14-11.74-30.49-30.65v-.57h69.81l.06-.64a53.16,53.16,0,0,0,.41-6C307.14,67.5,289.83,49.39,265.05,49.39Zm-27.88,40,.05-.61c1.31-16.54,12.17-27.24,27.64-27.24,12.52,0,26.29,7.16,27.47,27.26l0,.59Z"/><rect class="cls-1" x="322.36" y="24.91" width="14.29" height="117.54"/><rect class="cls-1" x="355.08" y="24.91" width="14.27" height="117.54"/><path class="cls-1" d="M521.52,49.93c-29.8,0-39,23.17-39,45.11v47.41H496.8V96.1c0-22.16,10.61-31.8,21.94-32.52,1-.07,15,0,15,0V50C533.29,50,522,49.93,521.52,49.93Z"/></g><g id="Icon"><path class="cls-1" d="M.42,154C11.08,149.19,21.9,144.11,32,139.1v25.6s7.32-2.82,12.39-5.35a94.29,94.29,0,0,0,9.6-5.27V127.66c9.26-5.13,16.79-9.83,21.21-13.64,14-12.1,16.45-22.32,14.36-29.82C83.65,62.91,55.74,71.29,55.74,71.29s10.36.23,14,5.59c2.55,3.75,4,9.25-4.64,17.89-7.35,7.35-35.44,20.86-65.1,33.29v25.7Z"/><path class="cls-1" d="M89.8,10.66C79.15,15.5,68.33,20.58,58.21,25.6V0S50.9,2.82,45.83,5.34a94.15,94.15,0,0,0-9.59,5.27V37C27,42.17,19.44,46.87,15,50.68,1,62.78-1.43,73,.66,80.49c5.92,21.29,33.83,12.92,33.83,12.92s-10.35-.24-14-5.59c-2.55-3.75-4-9.25,4.64-17.89,7.36-7.36,35.44-20.87,65.09-33.29V10.94C90.08,10.85,90,10.74,89.8,10.66Z"/></g></g><path class="cls-1" d="M561.3,72.17a13.91,13.91,0,1,1,14-14A13.81,13.81,0,0,1,561.3,72.17Zm.07-26.28a12.37,12.37,0,1,0,12.26,12.33A12.24,12.24,0,0,0,561.37,45.89ZM564.79,60l3.61,5.3h-3.8l-3.15-4.76h-2.57v4.76h-3.27V50.46h6.57c3.54,0,5.8,1.81,5.8,4.88A4.6,4.6,0,0,1,564.79,60Zm-2.72-6.61h-3.19v4.34h3.26c1.66,0,2.54-.88,2.54-2.15C564.68,54.07,563.68,53.34,562.07,53.34Z"/></g></g></svg>
